<svg xmlns="http://www.w3.org/2000/svg" width="10.537" height="10.537" viewBox="0 0 10.537 10.537">
  <path id="Path_1374" data-name="Path 1374" d="M4.768,0A4.768,4.768,0,1,1,0,4.768,4.768,4.768,0,0,1,4.768,0Z" transform="translate(0.5 10.037) rotate(-90)" fill="#cecece" stroke="#cecece" stroke-width="1"/>
</svg>
<svg xmlns="http://www.w3.org/2000/svg" width="10.537" height="10.537" viewBox="0 0 10.537 10.537">
  <path id="Path_1374" data-name="Path 1374" d="M4.768,0A4.768,4.768,0,1,1,0,4.768,4.768,4.768,0,0,1,4.768,0Z" transform="translate(0.5 10.037) rotate(-90)" fill="#cecece" stroke="#cecece" stroke-width="1"/>
</svg>
<svg xmlns="http://www.w3.org/2000/svg" width="10.537" height="10.537" viewBox="0 0 10.537 10.537">
  <path id="Path_1374" data-name="Path 1374" d="M4.768,0A4.768,4.768,0,1,1,0,4.768,4.768,4.768,0,0,1,4.768,0Z" transform="translate(0.5 10.037) rotate(-90)" fill="#cecece" stroke="#cecece" stroke-width="1"/>
</svg>