<svg xmlns="http://www.w3.org/2000/svg" width="4.533" height="4.533" viewBox="0 0 4.533 4.533">
  <g id="Path_1384" data-name="Path 1384" transform="translate(0 4.533) rotate(-90)" fill="#e86a1c" stroke-linecap="round">
    <path d="M 2.266654968261719 3.533295631408691 C 1.568225026130676 3.533295631408691 1.000005006790161 2.965075731277466 1.000005006790161 2.266645669937134 C 1.000005006790161 1.568215727806091 1.568225026130676 0.9999956488609314 2.266654968261719 0.9999956488609314 C 2.965095043182373 0.9999956488609314 3.533314943313599 1.568215727806091 3.533314943313599 2.266645669937134 C 3.533314943313599 2.965075731277466 2.965095043182373 3.533295631408691 2.266654968261719 3.533295631408691 Z" stroke="none"/>
    <path d="M 2.266654968261719 1.999995708465576 C 2.119615077972412 1.999995708465576 1.999994993209839 2.11961555480957 1.999994993209839 2.266645669937134 C 1.999994993209839 2.413675785064697 2.119615077972412 2.533295631408691 2.266654968261719 2.533295631408691 C 2.413685083389282 2.533295631408691 2.533304929733276 2.413675785064697 2.533304929733276 2.266645669937134 C 2.533304929733276 2.11961555480957 2.413685083389282 1.999995708465576 2.266654968261719 1.999995708465576 M 2.266654968261719 -4.291534423828125e-06 C 3.518495082855225 -4.291534423828125e-06 4.533305168151855 1.01481556892395 4.533305168151855 2.266645669937134 C 4.533305168151855 3.518475532531738 3.518495082855225 4.533295631408691 2.266654968261719 4.533295631408691 C 1.014814853668213 4.533295631408691 -5.245208740234375e-06 3.518475532531738 -5.245208740234375e-06 2.266645669937134 C -5.245208740234375e-06 1.01481556892395 1.014814853668213 -4.291534423828125e-06 2.266654968261719 -4.291534423828125e-06 Z" stroke="none" fill="#cecece"/>
  </g>
</svg>
